Coordinates
version=1
nRows=9
nColumns=24
inDegrees=yes

Units are S.I. units (second, meters, Newtons, ...)
Angles are in degrees.

endheader
time	pelvis_tilt	pelvis_list	pelvis_rotation	pelvis_tx	pelvis_ty	pelvis_tz	hip_flexion_r	hip_adduction_r	hip_rotation_r	knee_angle_r	ankle_angle_r	subtalar_angle_r	mtp_angle_r	hip_flexion_l	hip_adduction_l	hip_rotation_l	knee_angle_l	ankle_angle_l	subtalar_angle_l	mtp_angle_l	lumbar_extension	lumbar_bending	lumbar_rotation
     14.74000000	     52.98669660	     -7.08416485	     -1.44549849	     -0.56483344	      1.09811769	     -0.09238932	     20.57416886	    -13.64871812	     -3.06156210	    -69.91039418	    -11.51896582	      5.54928492	      0.00000000	     19.20320777	    -14.77621325	      4.35874395	    -70.46374351	     -8.14545289	     16.09602385	      0.00000000	      0.00000000	      0.00000000	      0.00000000
     14.75000000	     52.97906642	     -7.05421455	     -1.44124199	     -0.56484802	      1.09813297	     -0.09236670	     20.58685756	    -13.68201941	     -3.06125521	    -69.91538077	    -11.50972197	      5.54229999	      0.00000000	     19.19852552	    -14.71275294	      4.24695302	    -70.22335113	     -8.17077719	     16.07614952	      0.00000000	      0.00000000	      0.00000000	      0.00000000
     14.76000000	     53.00918540	     -7.04286690	     -1.43147464	     -0.56489751	      1.09816665	     -0.09233156	     20.55096931	    -13.68701807	     -3.06125104	    -69.90804705	    -11.50949072	      5.52804586	      0.00000000	     19.15539368	    -14.67719905	      4.13753507	    -69.97680754	     -8.19132872	     16.07489582	      0.00000000	      0.00000000	      0.00000000	      0.00000000
     14.77000000	     53.08837350	     -7.07122278	     -1.41927257	     -0.56498017	      1.09822654	     -0.09227294	     20.44808199	    -13.64160674	     -3.06713988	    -69.87670522	    -11.52772471	      5.50556781	      0.00000000	     19.06060315	    -14.68990564	      4.03900345	    -69.72855624	     -8.20367128	     16.09014120	      0.00000000	      0.00000000	      0.00000000	      0.00000000
     14.78000000	     53.22236022	     -7.16108465	     -1.41027723	     -0.56511443	      1.09831578	     -0.09223378	     20.26963313	    -13.52995002	     -3.08517208	    -69.80968486	    -11.57274310	      5.47488122	      0.00000000	     18.90812529	    -14.76391819	      3.95775713	    -69.48164008	     -8.20597083	     16.11588273	      0.00000000	      0.00000000	      0.00000000	      0.00000000
     14.79000000	     53.40753934	     -7.32456097	     -1.40964502	     -0.56536000	      1.09844059	     -0.09233317	     20.02182500	    -13.34993247	     -3.11901209	    -69.70066213	    -11.64820835	      5.43698196	      0.00000000	     18.70349675	    -14.89934482	      3.89557697	    -69.23676048	     -8.19913967	     16.14382497	      0.00000000	      0.00000000	      0.00000000	      0.00000000
     14.80000000	     53.62783131	     -7.55232781	     -1.41851072	     -0.56576190	      1.09860323	     -0.09265703	     19.72738842	    -13.11737485	     -3.16738036	    -69.55479080	    -11.75037776	      5.39379157	      0.00000000	     18.46554750	    -15.08078200	      3.84841585	    -68.99221563	     -8.18713604	     16.16577390	      0.00000000	      0.00000000	      0.00000000	      0.00000000
     14.81000000	     53.85459635	     -7.80873714	     -1.43266441	     -0.56624572	      1.09878004	     -0.09310686	     19.42370198	    -12.86512040	     -3.22383238	    -69.39148346	    -11.86730529	      5.34810485	      0.00000000	     18.22418705	    -15.27871886	      3.80729572	    -68.74492582	     -8.17632449	     16.17623120	      0.00000000	      0.00000000	      0.00000000	      0.00000000
     14.82000000	     54.05147289	     -8.04126718	     -1.44511705	     -0.56664516	      1.09892947	     -0.09346412	     19.15732089	    -12.63698515	     -3.27837782	    -69.24060372	    -11.98060050	      5.30352984	      0.00000000	     18.01492252	    -15.45452511	      3.76095674	    -68.49185403	     -8.17409960	     16.17433140	      0.00000000	      0.00000000	      0.00000000	      0.00000000
